<svg xmlns="http://www.w3.org/2000/svg" width="22.83" height="11.442" viewBox="0 0 22.83 11.442">
    <g data-name="그룹 293">
        <path data-name="패스 36" d="M-389 557.057v6.236h-1.835v-.563h-2.315v3.67h-1.846v-3.67h-2.3v.623h-1.751v-6.3h4.054v-2.051h1.846v2.051zm-6 3.957v-2.242h-2.3v2.242zm4.161 0v-2.242h-2.315v2.242z" style="fill:#fff" transform="translate(399.046 -555.006)"/>
        <path data-name="패스 37" d="M-378.171 558.532a13.041 13.041 0 0 1-2.471 4.221 11.477 11.477 0 0 0 4.426 1.907 8.537 8.537 0 0 0-1.259 1.751 11.821 11.821 0 0 1-4.654-2.266 13.831 13.831 0 0 1-4.582 2.3 10.17 10.17 0 0 0-1.1-1.7 12.483 12.483 0 0 0 4.354-1.919 14.784 14.784 0 0 1-2.4-4.293h-1.691v-1.7h4.6v-1.823h1.8v1.823h4.666v1.7zm-5.733 0a10.008 10.008 0 0 0 1.883 3 9.684 9.684 0 0 0 1.787-3z" style="fill:#fff" transform="translate(399.046 -555.006)"/>
    </g>
</svg>
