<svg xmlns="http://www.w3.org/2000/svg" width="26.001" height="19.625" viewBox="0 0 26.001 19.625">
    <g data-name="그룹 298">
        <path data-name="패스 38" d="M-326.729 730.308a5.933 5.933 0 0 1 6.065-5.962 5.979 5.979 0 0 1 5.9 6.149 6.037 6.037 0 0 1-6.062 5.828 5.951 5.951 0 0 1-5.903-6.015zm10.554-.56c-.048-.242-.075-.416-.118-.586a4.61 4.61 0 0 0-4.479-3.454 4.62 4.62 0 0 0-4.454 3.45 1.944 1.944 0 0 0 1.211 2.438 1.96 1.96 0 0 0 2.246-.832 5.418 5.418 0 0 1 .6-.952 3.293 3.293 0 0 1 4.674-.345z" transform="translate(333.847 -720.491)" style="fill:#fff"/>
        <path data-name="패스 39" d="m-378.729 701.094-.842-.589 3.344-4.781.842.59z" transform="translate(379.571 -695.724)" style="fill:#fff"/>
        <path data-name="패스 40" d="m-223.468 708.162-.842.59-3.345-4.778.841-.592z" transform="translate(248.111 -702.35)" style="fill:#fff"/>
        <path data-name="패스 41" d="m-358.55 716.422-.843-.589 3.345-4.78.843.589z" transform="translate(362.11 -708.989)" style="fill:#fff"/>
        <path data-name="패스 42" d="m-358.4 786.275 3.345 4.78-.841.591-3.346-4.779z" transform="translate(361.981 -774.082)" style="fill:#fff"/>
        <path data-name="패스 43" d="m-366.141 703.388.843.589-3.344 4.779-.844-.587z" transform="translate(370.844 -702.356)" style="fill:#fff"/>
        <path data-name="패스 44" d="m-375.241 805.376-.84.593-3.346-4.78.842-.591z" transform="translate(379.446 -786.476)" style="fill:#fff"/>
        <path data-name="패스 45" d="m-202.481 801.6.843.589-1.52 2.175-.839-.591z" transform="translate(227.638 -787.342)" style="fill:#fff"/>
        <path data-name="패스 46" d="m-235.388 713.226-.839.594-1.523-2.175.843-.589z" transform="translate(256.846 -708.991)" style="fill:#fff"/>
        <path data-name="패스 47" d="m-223.3 789.032-.839-.593 1.512-2.16.841.589z" transform="translate(245.065 -774.085)" style="fill:#fff"/>
        <path data-name="패스 48" d="m-366.978 795.111-.84.593-1.519-2.169.842-.589z" transform="translate(370.715 -779.855)" style="fill:#fff"/>
        <path data-name="패스 49" d="m-212.559 793.944.843.589-1.518 2.17-.84-.594z" transform="translate(236.359 -780.718)" style="fill:#fff"/>
        <path data-name="패스 50" d="m-215.209 697.881-.837.594-1.515-2.163.84-.592z" transform="translate(239.377 -695.721)" style="fill:#fff"/>
        <path data-name="패스 51" d="m-226.811 816.753-.842-.592 1.445-2.065.838.592z" transform="translate(248.109 -798.157)" style="fill:#fff"/>
        <path data-name="패스 52" d="m-237.753 808.462 1.452-2.073.837.593-1.444 2.068z" transform="translate(256.849 -791.487)" style="fill:#fff"/>
        <path data-name="패스 53" d="m-353.762 815.751-1.442-2.063.838-.593 1.446 2.065z" transform="translate(358.485 -797.29)" style="fill:#fff"/>
        <path data-name="패스 54" d="m-202.031 718.51-1.449-2.07.84-.591 1.45 2.07z" transform="translate(227.191 -713.139)" style="fill:#fff"/>
        <path data-name="패스 55" d="m-216.122 821.8.841.592-1.44 2.057-.843-.586z" transform="translate(239.378 -804.82)" style="fill:#fff"/>
        <path data-name="패스 56" d="m-223.6 731.847.838-.593 1.445 2.058-.843.591z" transform="translate(244.603 -726.469)" style="fill:#fff"/>
    </g>
</svg>
