<?xml version="1.0" encoding="utf-8"?>
<!-- Generator: Adobe Illustrator 25.4.1, SVG Export Plug-In . SVG Version: 6.00 Build 0)  -->
<svg version="1.1" id="레이어_1" xmlns="http://www.w3.org/2000/svg" xmlns:xlink="http://www.w3.org/1999/xlink" x="0px"
	 y="0px" viewBox="0 0 23.01 22.83" style="enable-background:new 0 0 23.01 22.83;" xml:space="preserve">
<style type="text/css">
	.st0{fill:#231815;}
</style>
<g>
	<g>
		<g>
			<path class="st0" d="M20.25,13.66c0.07-0.34,0.1-0.68,0.14-1.03c-0.18,0.18-0.36,0.36-0.55,0.55c0.87-0.04,1.74-0.09,2.61-0.08
				c0.3,0.01,0.54-0.25,0.55-0.55c0.02-0.74,0.01-1.48-0.04-2.22c-0.03-0.4,0.03-1.06-0.21-1.43c-0.5-0.78-2.34-0.34-3.06-0.28
				c0.18,0.13,0.35,0.27,0.53,0.4c-0.24-0.82-0.57-1.58-0.98-2.33c-0.07,0.25-0.13,0.5-0.2,0.75c0.8-0.38,1.53-0.9,2.36-1.23
				c0.39-0.16,0.53-0.58,0.24-0.91c-0.51-0.59-1.02-1.18-1.53-1.76c-0.37-0.42-0.71-0.97-1.19-1.27c-0.17-0.11-0.38-0.09-0.55,0
				c-0.78,0.42-1.48,1.29-2.13,1.88c0.22-0.03,0.44-0.06,0.66-0.09c-0.87-0.64-1.85-0.94-2.88-1.23c0.13,0.18,0.27,0.35,0.4,0.53
				c0.01-0.67,0.03-1.33,0.02-2c0-0.32,0.04-0.73-0.21-0.98c-0.51-0.51-1.92-0.28-2.59-0.29c-0.69-0.01-2.02-0.27-2.59,0.2
				C8.37,0.83,8.8,2.44,8.87,3.15c0.13-0.18,0.27-0.35,0.4-0.53C7.98,2.88,6.67,3.2,5.56,3.95C5.78,3.98,6,4.01,6.22,4.03
				C5.63,3.41,5.09,2.74,4.51,2.1c-0.2-0.22-0.57-0.2-0.77,0C2.85,3.01,1.97,3.92,1.08,4.83c-0.24,0.25-0.2,0.68,0.11,0.86
				c0.9,0.51,1.68,1.2,2.61,1.66C3.74,7.1,3.67,6.85,3.61,6.6C3.06,7.68,2.67,8.78,2.44,9.96c0.18-0.13,0.35-0.27,0.53-0.4
				C2.3,9.52,0.65,8.92,0.17,9.68c-0.25,0.39-0.15,1.14-0.15,1.57C0,12.02,0.02,12.79,0.06,13.56c0.02,0.38,0.33,0.58,0.69,0.53
				c0.71-0.11,1.43-0.15,2.15-0.21c-0.18-0.18-0.36-0.36-0.55-0.55c-0.01,1.17,0.53,2.31,1.11,3.29c0.07-0.25,0.13-0.5,0.2-0.75
				c-0.64,0.38-1.32,0.7-1.99,1.04c-0.26,0.13-0.34,0.51-0.2,0.75c0.75,1.22,1.74,2.24,2.85,3.15C4.6,21.02,5,21.02,5.19,20.7
				c0.36-0.62,0.82-1.16,1.28-1.71c-0.22,0.03-0.44,0.06-0.66,0.09c0.98,0.63,2.09,0.94,3.21,1.24c-0.13-0.18-0.27-0.35-0.4-0.53
				c0.04,0.75-0.02,1.57,0.12,2.3c0.04,0.24,0.1,0.48,0.32,0.63c0.32,0.2,0.88,0.08,1.23,0.08c0.52-0.01,1.04-0.02,1.56-0.04
				c0.57-0.03,1.82,0.1,2.22-0.4c0.46-0.59-0.13-2.01-0.22-2.66c-0.18,0.23-0.35,0.46-0.53,0.69c1.45-0.11,2.45-0.62,3.5-1.61
				c-0.26,0-0.51,0-0.77,0c0.51,0.52,1.44,2.14,2.31,1.89c0.45-0.13,0.88-0.73,1.18-1.05c0.56-0.57,1.09-1.16,1.68-1.69
				c0.27-0.25,0.17-0.67-0.11-0.86c-0.76-0.49-1.52-0.99-2.27-1.48c0.07,0.25,0.13,0.5,0.2,0.75C19.56,15.48,19.97,14.6,20.25,13.66
				c0.2-0.67-0.85-0.96-1.05-0.29c-0.26,0.86-0.63,1.64-1.11,2.4c-0.16,0.26-0.05,0.59,0.2,0.75c0.76,0.49,1.52,0.99,2.27,1.48
				c-0.04-0.29-0.07-0.57-0.11-0.86c-0.82,0.75-1.61,2.01-2.58,2.54c0.18,0,0.37,0,0.55,0c-0.59-0.33-1.13-1.21-1.6-1.69
				c-0.21-0.22-0.56-0.2-0.77,0c-0.83,0.77-1.59,1.21-2.73,1.29c-0.39,0.03-0.58,0.32-0.53,0.69c0.08,0.54,0.41,1.36,0.32,1.89
				c0.13-0.13,0.25-0.25,0.38-0.38c-0.54,0.21-1.31,0.15-1.89,0.17c-0.61,0.02-1.54,0.22-2.11,0.05c0.13,0.13,0.25,0.25,0.38,0.38
				c-0.22-0.67-0.11-1.61-0.15-2.31c-0.01-0.24-0.16-0.46-0.4-0.53c-1.03-0.27-2.05-0.54-2.95-1.13c-0.19-0.12-0.51-0.09-0.66,0.09
				c-0.52,0.63-1.04,1.23-1.45,1.93c0.29-0.04,0.57-0.07,0.86-0.11c-1.04-0.84-1.98-1.78-2.68-2.92c-0.07,0.25-0.13,0.5-0.2,0.75
				c0.66-0.34,1.34-0.66,1.99-1.04c0.25-0.15,0.35-0.49,0.2-0.75c-0.49-0.82-0.97-1.76-0.96-2.74c0-0.28-0.25-0.57-0.55-0.55
				c-0.81,0.07-1.63,0.13-2.44,0.25c0.23,0.18,0.46,0.35,0.69,0.53c-0.02-0.51-0.04-1.02-0.05-1.53c0-0.35,0.14-1.03,0.02-1.36
				c0.07-0.2-0.01-0.28-0.24-0.25c0.3,0,0.6,0.03,0.9,0.09c0.4,0.06,0.78,0.12,1.19,0.14c0.22,0.01,0.48-0.18,0.53-0.4
				c0.22-1.1,0.55-2.1,1.06-3.1C4.67,6.9,4.63,6.54,4.35,6.4C3.42,5.95,2.64,5.25,1.74,4.75C1.78,5.03,1.82,5.32,1.85,5.6
				c0.89-0.91,1.77-1.82,2.66-2.73c-0.26,0-0.51,0-0.77,0c0.58,0.64,1.12,1.31,1.71,1.93c0.16,0.17,0.47,0.22,0.66,0.09
				c1.03-0.7,2.25-0.98,3.45-1.22c0.21-0.04,0.42-0.3,0.4-0.53c-0.07-0.7-0.3-1.61-0.06-2.29C9.78,0.98,9.65,1.11,9.52,1.24
				c0.63-0.19,1.46-0.08,2.12-0.06c0.63,0.01,1.45-0.06,2.06,0.11c-0.13-0.13-0.25-0.25-0.38-0.38c0.21,0.7,0.02,1.72,0.02,2.45
				c0,0.24,0.17,0.46,0.4,0.53c0.94,0.26,1.82,0.54,2.61,1.12c0.2,0.15,0.49,0.07,0.66-0.09c0.59-0.53,1.22-1.33,1.91-1.71
				c-0.18,0-0.37,0-0.55,0c0.46,0.29,0.9,1.02,1.24,1.42c0.42,0.48,0.84,0.96,1.25,1.44c0.08-0.3,0.16-0.61,0.24-0.91
				c-0.91,0.37-1.73,0.92-2.62,1.34c-0.27,0.13-0.33,0.51-0.2,0.75c0.37,0.67,0.66,1.34,0.87,2.07c0.06,0.21,0.29,0.42,0.53,0.4
				c0.73-0.06,1.74-0.29,2.44-0.01c-0.13-0.13-0.25-0.25-0.38-0.38c0.29,0.98,0.18,2.22,0.15,3.23c0.18-0.18,0.36-0.36,0.55-0.55
				c-0.87-0.02-1.74,0.04-2.61,0.08c-0.32,0.02-0.51,0.24-0.55,0.55c-0.02,0.25-0.06,0.5-0.1,0.74
				C19.06,14.05,20.12,14.34,20.25,13.66z"/>
		</g>
	</g>
	<g>
		<g>
			<path class="st0" d="M9.36,8.35c2.64-1.65,6.21,0.99,5.55,3.99c-0.31,1.44-1.58,2.47-3.05,2.55c-1.56,0.09-3.1-0.76-3.83-2.14
				C7.17,11.13,7.9,9.33,9.36,8.35c0.58-0.39,0.03-1.32-0.55-0.93c-1.67,1.12-2.67,3.08-2.06,5.08c0.58,1.9,2.38,3.24,4.33,3.46
				c1.93,0.22,3.91-0.81,4.66-2.64c0.68-1.68,0.26-3.68-1-4.98c-1.53-1.58-4.02-2.12-5.93-0.92C8.22,7.78,8.76,8.72,9.36,8.35z"/>
		</g>
	</g>
</g>
</svg>
